<?xml version="1.0" standalone="no"?>
<!DOCTYPE svg PUBLIC "-//W3C//DTD SVG 20010904//EN"
 "http://www.w3.org/TR/2001/REC-SVG-20010904/DTD/svg10.dtd">
<svg version="1.0" xmlns="http://www.w3.org/2000/svg"
 width="754.000000pt" height="754.000000pt" viewBox="0 0 754.000000 754.000000"
 preserveAspectRatio="xMidYMid meet">
<metadata>
Created by potrace 1.11, written by Peter Selinger 2001-2013
</metadata>
<g transform="translate(0.000000,754.000000) scale(0.100000,-0.100000)"
fill="#000000" stroke="none">
<path d="M3537 7529 c-1230 -74 -2356 -758 -2993 -1819 -318 -529 -503 -1132
-531 -1727 l-6 -143 626 0 627 0 0 55 c0 137 43 401 95 579 91 312 253 622
462 881 90 111 281 301 388 387 297 235 655 406 1025 488 336 75 742 74 1075
-1 457 -104 855 -318 1188 -638 l118 -115 -303 -303 -303 -303 995 2 995 3 3
995 2 995 -252 -252 -253 -252 -130 126 c-642 619 -1471 984 -2370 1043 -175
11 -265 11 -458 -1z"/>
<path d="M3218 4754 c-15 -8 -36 -29 -45 -47 -17 -30 -18 -94 -20 -937 -3
-973 -5 -939 48 -969 58 -32 93 -15 956 465 450 250 826 464 836 475 24 29 21
71 -6 97 -28 26 -1550 876 -1627 908 -64 27 -104 29 -142 8z"/>
<path d="M6276 3718 c-2 -7 -9 -75 -15 -151 -69 -833 -555 -1576 -1300 -1987
-278 -153 -581 -248 -925 -290 -132 -16 -440 -13 -581 5 -544 72 -1036 307
-1422 680 l-108 104 298 298 c163 164 297 301 297 306 0 4 -448 7 -995 7
l-995 0 0 -997 0 -998 248 248 c136 136 251 247 256 247 5 0 65 -55 135 -123
554 -536 1285 -895 2051 -1007 393 -57 822 -51 1208 19 718 131 1375 461 1907
961 638 598 1039 1375 1159 2245 18 128 38 423 30 436 -3 5 -273 9 -625 9
-487 0 -620 -3 -623 -12z"/>
</g>
</svg>
