<svg version="1.1" xmlns="http://www.w3.org/2000/svg" xmlns:xlink="http://www.w3.org/1999/xlink" viewBox="0 0 192 192">
  <g fill="#ffffff">
    <path d="M46.08,0c-6.765,0 -12.675,2.115 -16.8,6.24c-4.125,4.125 -6.24,10.08 -6.24,16.8v32.88l-16.44,-16.44c-0.93,-0.96 -2.295,-1.365 -3.6,-1.08c-1.44,0.255 -2.595,1.305 -3,2.7c-0.405,1.41 0.015,2.91 1.08,3.9l23.04,23.04l2.76,2.64l2.76,-2.64l23.04,-23.04c1.53,-1.53 1.53,-3.99 0,-5.52c-1.53,-1.53 -3.99,-1.53 -5.52,0l-16.44,16.44v-32.88c0,-5.175 1.47,-8.91 3.96,-11.4c2.49,-2.49 6.195,-3.96 11.4,-3.96h26.88c1.38,0.015 2.67,-0.705 3.375,-1.905c0.69,-1.2 0.69,-2.67 0,-3.87c-0.705,-1.2 -1.995,-1.92 -3.375,-1.905zM91.56,30.72c-11.745,0 -22.44,10.98 -22.44,23.04v115.2c0,14.28 13.425,23.04 23.04,23.04h78.24c11.895,0 21.6,-9.705 21.6,-21.6v-118.08c0,-11.895 -9.705,-21.6 -21.6,-21.6zM88.32,53.76h84.48v111.36h-84.48zM130.56,170.88c3.18,0 5.76,2.58 5.76,5.76c0,3.18 -2.58,5.76 -5.76,5.76c-3.18,0 -5.76,-2.58 -5.76,-5.76c0,-3.18 2.58,-5.76 5.76,-5.76z"></path>
  </g>
</svg>
